<svg xmlns="http://www.w3.org/2000/svg" width="647.043" height="980.842" viewBox="0 0 647.043 980.842"><path fill="#23373B" d="M0 319.57V0h646.968v380.963l-81.39 20.753-.668-107.146s6.93 21.02 15.258 17.347c5.65-2.49-.244 10.37-.244 10.37s6.803 5.27 4.727 8.624c-2.722 4.4-3.02 12.412-.57 20.94 2.452 8.53 5.376 9.355.928 23.61-4.448 14.257 25.21 19.66 25.21 6.414s1.117-71.598 1.117-71.598c-7.583-3.97-40.044-20.557-46.426-20.557-7.166 0-49.665 16.157-49.665 16.157l-1.612 108.568-58.205 15.937-.462-69.754-17.65-15.602-2.676-26.897-21.417-13.86s1.17-126.067 0-130.02c-1.17-3.954-77.17-76.12-80.005-78.954-2.833-2.833-5.236-2.667-10.736 2.667-4.18 4.053-75.09 71.332-75.09 71.332l-1.175 134.835-11.833 9.5s-6.223-.146-7.528 2.344c-1.305 2.49-1.904 27.994-1.904 27.994l-17.068 16.33s.415-33.8-.16-44.324c-2.673-11.677.327-33.51-2.007-36.677-2.333-3.167-29.708-15.666-32.833-17.167-4.167-2-33.305-.55-36.805.617s-27.57 17.325-27.57 17.325-.626 50.725 1.04 67.725c1.668 17-.823 22.164-2.16 23.332C106.052 372.295 0 319.57 0 319.57z"/><path fill="#23373B" d="M135.386 571.463l1.375-255s-8.245 73.863-6.37 80.613-1.213 29.61-.754 36.137c1.052 14.968-.29 15.08-1 24.375-.626 8.21 2.083 11.79-.125 17.25-2.273 5.625-5.374 72.125-3.374 96.625h10.25zM153.386 571.463h19.5s-3.04-77.653-3.146-86.773c-.105-9.12.285-160.904.285-160.904l-1.71-47.744s-4.418 25.51-3.705 32.352c.713 6.84 1.425 1.71 2.423 8.694.998 6.983-.766 110.974-2.565 120-1.8 9.028-3.146 37.64-3.42 65.845-.176 18.095-2.423 27.934-.57 39.905 2.43 15.714-7.092 28.625-7.092 28.625zM189.386 571.463s14.5-22.25 14.5-37v-162.5s-6.97 14.956-7.25 21.5c-.28 6.544-.5 12.75-1 20s-4.25 14.25-7.25 34.5.75 24.074-2 43.037-3 21.213 0 37.463 3 43 3 43zM210.636 571.463h14v-220.75l-3.5 2.75s-.75 63.5-1 98.5 2 45.75-.5 50.75-2 12.75-2 12.75-.75 9.5-1.25 21.5-5.75 34.5-5.75 34.5zM237.636 571.463h9l-.5-159.5-3.05-2.35s1.034 55.83.784 61.58-.496 15.702-1.735 20.997c-2.73 11.674.13 49.856-2.75 55.522-2.88 5.666-2.488 8.957-2.566 13.814-.08 4.86.816 9.937.816 9.937zM329.548 571.463l2.067-186.687s2.97 3.873 3.134 15.228c.137 9.61 10.412 20.47 12.986 35.136 1.7 9.69 3.27 22.62 9.92 34.31 3.897 6.848 4.06 19.79 3.135 24.387-.925 4.597-.533 4.942.472 9.127.895 3.726-1.54 5.92.917 10.343 2.5 4.5 3.707 2.407 9.118 11.532 6.178 10.416-1.16 4.874 10.747 20.254 2.683 3.465.716 6.995-.16 13.495-.986 7.33 4.293 12.874 4.293 12.874h-56.63zM410.136 571.463h12.75s-.333-14.333-1.5-19.5-1.13-28.68-.123-33.497c1.008-4.817-3.456-14.915-2.043-21.003 1.5-6.463.617-9.996-.157-20.465-.514-6.954-1.176-26.785-1.176-26.785s.174-60.33-1.375-59.75-2.845-.777-3.125 6.25c-.28 7.027 1.61 79.375.11 99.375-1.134 15.108-.306 38.56.223 47.042.528 8.48-.667 13.833-3.584 28.333zM433.886 571.463h8.667s.83-23.497.485-28.465c-.207-2.984-1.975-2.738-2.152-8.035-.177-5.296 1.79-5.284 2.496-12.617 1.045-10.876-.595-20.663-.163-28.716.384-7.173.723-17.405-1.668-22s-1-10.667-1-10.667l-1.667-45.333s-3.74 22.062-3.074 46.508c.923 33.942-.562 72.925-.078 78.37 1.364 15.348-1.846 30.955-1.846 30.955zM493.136 506.963l20.75 12.75s1.162 22.525.122 29.49c-.192 1.287-16.942-4.055-20.372-14.136-1.973-5.803-.5-28.104-.5-28.104zM491.97 493.11s-.584-16.897.416-21.147 13.14-17.662 15.14-18.912 2.278.506 3.36-.587c1.082-1.093 1.437-1.765 3.554-2.75s2.306.764 2.527 2.393c.208 1.536-.91 9.124-1.433 14.126-.684 6.55-.995 12.596-1.094 18.63-.098 6.034 0 22.1 0 22.1l-22.47-13.853z"/><g fill="#23373B"><path d="M84.21 694.527h-9.684l-2.997-36.31c-1.154-12.562-2.076-26.164-2.19-32.85L51.472 685.42h-9.336l-18.673-60.168c-.115 8.99-.807 21.785-1.844 33.542l-2.767 35.732h-9.45l6.685-79.302h13.6l17.406 58.67 16.598-58.67h13.602l6.915 79.303zM144.61 623.294h-31.236v26.742h27.087v8.068h-27.086v28.355h33.196v8.067h-43.11v-79.302h42.303l-1.152 8.07zM207.548 623.755h-22.246v70.772h-9.913v-70.772h-22.823v-8.53H208.7l-1.152 8.53zM242.936 660.41h-13.14v34.117h-9.913v-79.302h20.402c19.595 0 29.74 7.607 29.74 22.246 0 11.297-5.995 17.867-17.29 21.21l21.438 35.847H262.3l-19.364-34.118zm-1.5-7.724c11.412 0 17.982-4.265 17.982-15.215 0-10.027-5.763-14.407-19.25-14.407h-10.374v29.623h11.643zM347.37 654.992c0 26.165-13.372 40.918-33.197 40.918-19.71 0-33.196-14.293-33.196-40.803 0-26.166 13.6-41.265 33.196-41.265 19.71 0 33.196 14.408 33.196 41.15zm-55.79.115c0 23.053 9.22 32.504 22.592 32.504 13.832 0 22.592-9.45 22.592-32.62s-8.645-32.85-22.592-32.85c-13.6 0-22.592 9.683-22.592 32.967zM414.685 639.546c0 18.097-13.025 25.474-30.43 25.474H373.88v29.508h-9.912v-79.302h20.287c18.904 0 30.43 7.722 30.43 24.32zm-10.604.115c0-12.217-7.722-16.597-19.94-16.597h-10.258v34.003h10.028c12.103 0 20.17-3.688 20.17-17.405zM490.07 654.992c0 26.165-13.37 40.918-33.196 40.918-19.71 0-33.196-14.293-33.196-40.803 0-26.166 13.6-41.265 33.196-41.265 19.71 0 33.196 14.408 33.196 41.15zm-55.788.115c0 23.053 9.22 32.504 22.592 32.504 13.832 0 22.59-9.45 22.59-32.62s-8.644-32.85-22.59-32.85c-13.602 0-22.592 9.683-22.592 32.967zM516.582 685.768h32.735l-1.152 8.76H506.67v-79.302h9.912v70.542zM571.68 694.527h-9.912v-79.302h9.913v79.302zM636.69 622.948l-5.416 6.11c-5.994-4.842-11.526-6.917-18.212-6.917-8.414 0-14.754 4.035-14.754 11.758 0 7.03 3.343 10.374 17.636 14.754 13.024 3.92 23.283 8.99 23.283 23.86 0 13.832-10.374 23.398-27.78 23.398-11.295 0-20.055-3.804-26.625-10.143l5.648-6.34c5.878 5.07 12.103 8.184 20.862 8.184 9.683 0 17.52-4.955 17.52-14.753 0-8.184-3.918-11.757-17.52-15.906-15.56-4.725-23.283-10.603-23.283-22.707 0-11.872 10.143-20.402 24.55-20.402 10.836.002 17.636 3.23 24.09 9.108z"/></g><path fill="#23373B" d="M467.856 571.463h-15.47s1.5-116.75 1-121 5.72-7 9.235-7c3.516 0 13.405 1.137 15.266 0 1.86-1.137 8-4.5 12-4.5s9.81.066 18.51-1c8.7-1.066 11.74-1.75 20.49-2s16.75 1.5 23.5 1 6-4.41 9-5.58 4 .168 7-1c3-1.17 4.5-4.42 10-5.42s15.25-12 18.5-12 17.882-8.75 29.25-10.75 20.832-1.25 20.832-1.25v8.5s-28.332-2-50.582 18-10.533 22.11-5.64 34.805c1.707 4.434 1.103 6.665.974 9.86-.24 5.956-1.442 11.935-1.333 18.334.167 9.833-2.333 21.833-1 27.25 1.333 5.417-2.167 4.083-2.25 9.25-.083 5.167 4.813 9.018 4.5 16-.313 6.982-1.083 14.167-.75 16.75.333 2.583 2.167 3.75 3.5 0s2.1-79.327 1.6-89.244-1.267-29.34 8.566-37.173c8.597-6.848 13.167-10.333 20.333-13.333s9.784-.764 8.5 4.5c-1.284 5.264-2.5 10.5-2.5 15.25s-.167 8.583 0 14-1.2 5.083-1.25 8c-.083 4.917 2.583 3.25 4.75 3s3.833.917 4.75 5.25c.917 4.333 1.42 69.755.695 74.193-.65 3.982-.32 7.964.302 11.532.62 3.568 1.444 2.858 1.505 6.276.083 4.667-1.75 9.5-1.75 9.5h-27s-.5-24.5-2.25-33c-.875-4.25.135-15.996.417-30s-.167-30.268-.167-30.268l-.333-30.066s0-17-1.917-14.918c-1.917 2.083-3.25 10.5-3.25 10.5s-1.667 8.417-2.25 16 3.417 9.88 2.75 18.482-4.667 7.934-3.5 19.268c1.167 11.333 2 23.5 2 28.25s2.12 3.736 2 8.5-1 15.25-.5 20 .667 5.917 1 9.5c.333 3.583-1 7.75-1 7.75h-25s-.5-94.667-.5-98.75c0-4.083-1.833-6.083-3.25-1.25s.223 5.908-.5 8.75c-.723 2.842-.583 7.083-3.5 13.75s-1.5 77.5-1.5 77.5h-84.5s2.327-5.62 2.898-11.534c.617-6.39.617-7.39 1.602-13.466.35-2.16 6.083 13.333 14 18.5 5.897 3.85 11.913 6.012 22.25 5.767 10.774-.256 21.564-5.546 22.5-8.268 1.833-5.333 1.5-106.833.25-111-1.25-4.167-15.085-10.913-29.5-10.5-23.25.667-43.435 20.02-43.682 33.173-.293 15.557-1.9 18.993-2.818 29.077-.917 10.083-6.78 14.417-6.78 26.5v41.75zM0 735c0 90.12 185.252 207.525 323.162 244.472C461.072 942.525 646.325 825.122 646.325 735H0zm247.254 80.115h-14.958V862.7h-6.665v-47.585h-15.344v-5.734h37.742l-.774 5.735zm44.25 47.585h-6.74v-25.265H261.59V862.7h-6.664v-53.32h6.665v22.476h23.173V809.38h6.742v53.32zm42.935 0h-28.986v-53.32h28.442l-.775 5.426h-21v17.98h18.21v5.424h-18.21v19.065h22.32v5.425zm50.838 0l-2.015-24.412c-.775-8.447-1.395-17.593-1.472-22.088l-12.012 40.378H363.5l-12.555-40.455c-.078 6.045-.542 14.647-1.24 22.553l-1.86 24.024h-6.355l4.495-53.32h9.145l11.703 39.448 11.16-39.447h9.145l4.65 53.32h-6.51zm47.816 0H404.11v-53.32h28.44l-.774 5.426h-21.002v17.98h18.212v5.424h-18.212v19.065h22.32v5.425z"/></svg>